<svg width="122" height="112" viewBox="0 0 122 112" fill="none" xmlns="http://www.w3.org/2000/svg">
<g id="Group 2143">
<ellipse id="Ellipse 58" cx="37.798" cy="3.54388" rx="2.5" ry="2.62469" transform="rotate(31.479 37.798 3.54388)" fill="#24F639"/>
<ellipse id="Ellipse 70" cx="14.9344" cy="40.8847" rx="2.5" ry="2.62469" transform="rotate(31.479 14.9344 40.8847)" fill="#24F639"/>
<ellipse id="Ellipse 60" cx="69.6854" cy="23.0685" rx="2.5" ry="2.62469" transform="rotate(31.479 69.6854 23.0685)" fill="#24F639"/>
<ellipse id="Ellipse 71" cx="46.8218" cy="60.4091" rx="2.5" ry="2.62469" transform="rotate(31.479 46.8218 60.4091)" fill="#24F639"/>
<ellipse id="Ellipse 62" cx="101.573" cy="42.593" rx="2.5" ry="2.62469" transform="rotate(31.479 101.573 42.593)" fill="#24F639"/>
<ellipse id="Ellipse 72" cx="78.7092" cy="79.9338" rx="2.5" ry="2.62469" transform="rotate(31.479 78.7092 79.9338)" fill="#24F639"/>
<ellipse id="Ellipse 64" cx="26.3663" cy="22.2141" rx="2.5" ry="2.62469" transform="rotate(31.479 26.3663 22.2141)" fill="#24F639"/>
<ellipse id="Ellipse 73" cx="3.5028" cy="59.5546" rx="2.5" ry="2.62469" transform="rotate(31.479 3.5028 59.5546)" fill="#24F639"/>
<ellipse id="Ellipse 66" cx="58.2537" cy="41.7387" rx="2.5" ry="2.62469" transform="rotate(31.479 58.2537 41.7387)" fill="#24F639"/>
<ellipse id="Ellipse 74" cx="35.3902" cy="79.0793" rx="2.5" ry="2.62469" transform="rotate(31.479 35.3902 79.0793)" fill="#24F639"/>
<ellipse id="Ellipse 68" cx="90.1411" cy="61.2634" rx="2.5" ry="2.62469" transform="rotate(31.479 90.1411 61.2634)" fill="#24F639"/>
<ellipse id="Ellipse 75" cx="67.2776" cy="98.6037" rx="2.5" ry="2.62469" transform="rotate(31.479 67.2776 98.6037)" fill="#24F639"/>
<ellipse id="Ellipse 59" cx="53.7417" cy="13.3061" rx="2.5" ry="2.62469" transform="rotate(31.479 53.7417 13.3061)" fill="#24F639"/>
<ellipse id="Ellipse 76" cx="30.8781" cy="50.6469" rx="2.5" ry="2.62469" transform="rotate(31.479 30.8781 50.6469)" fill="#24F639"/>
<ellipse id="Ellipse 61" cx="85.6291" cy="32.8307" rx="2.5" ry="2.62469" transform="rotate(31.479 85.6291 32.8307)" fill="#24F639"/>
<ellipse id="Ellipse 77" cx="62.7655" cy="70.1713" rx="2.5" ry="2.62469" transform="rotate(31.479 62.7655 70.1713)" fill="#24F639"/>
<ellipse id="Ellipse 63" cx="117.517" cy="52.3552" rx="2.5" ry="2.62469" transform="rotate(31.479 117.517 52.3552)" fill="#24F639"/>
<ellipse id="Ellipse 78" cx="94.6529" cy="89.696" rx="2.5" ry="2.62469" transform="rotate(31.479 94.6529 89.696)" fill="#24F639"/>
<ellipse id="Ellipse 65" cx="42.31" cy="31.9765" rx="2.5" ry="2.62469" transform="rotate(31.479 42.31 31.9765)" fill="#24F639"/>
<ellipse id="Ellipse 79" cx="19.4465" cy="69.3171" rx="2.5" ry="2.62469" transform="rotate(31.479 19.4465 69.3171)" fill="#24F639"/>
<ellipse id="Ellipse 67" cx="74.1974" cy="51.5009" rx="2.5" ry="2.62469" transform="rotate(31.479 74.1974 51.5009)" fill="#24F639"/>
<ellipse id="Ellipse 80" cx="51.3339" cy="88.8415" rx="2.5" ry="2.62469" transform="rotate(31.479 51.3339 88.8415)" fill="#24F639"/>
<ellipse id="Ellipse 69" cx="106.085" cy="71.0256" rx="2.5" ry="2.62469" transform="rotate(31.479 106.085 71.0256)" fill="#24F639"/>
<ellipse id="Ellipse 81" cx="83.2213" cy="108.366" rx="2.5" ry="2.62469" transform="rotate(31.479 83.2213 108.366)" fill="#24F639"/>
</g>
</svg>
